# AST/ASF file generated using VICON BodyLanguage
# -----------------------------------------------
:version 1.10
:name VICON
:units
  mass 1.0
  length 0.45
  angle deg
:documentation
   .ast/.asf automatically generated from VICON data using
   VICON BodyBuilder and BodyLanguage model FoxedUp or BRILLIANT.MOD
:root
   order TX TY TZ RX RY RZ
   axis XYZ
   position 0 0 0  
   orientation 0 0 0 
:bonedata
  begin
     id 1 
     name lhipjoint
     direction 0.567725 -0.736092 0.368589 
     length 2.42353 
     axis 0 0 0  XYZ
  end
  begin
     id 2 
     name lfemur
     direction 0.34202 -0.939693 0  
     length 7.24894  
     axis 0 0 20  XYZ
    dof rx ry rz
    limits (-160.0 20.0)
           (-70.0 70.0)
           (-60.0 70.0)
  end
  begin
     id 3 
     name ltibia
     direction 0.34202 -0.939693 0   
     length 7.6997   
     axis 0 0 20   XYZ
    dof rx
    limits (-10.0 170.0)
  end
  begin
     id 4 
     name lfoot
     direction 0.100767 -0.276854 0.955614   
     length 2.37556   
     axis -90 7.62852e-016 20   XYZ
    dof rx rz
    limits (-45.0 90.0)
           (-70.0 20.0)
  end
  begin
     id 5 
     name ltoes
     direction 1.53592e-011 -4.21894e-011 1   
     length 1.18363   
     axis -90 7.62852e-016 20   XYZ
    dof rx
    limits (-90.0 20.0)
  end
  begin
     id 6 
     name rhipjoint
     direction -0.556459 -0.742938 0.372017   
     length 2.4012  
     axis 0 0 0  XYZ 
  end
  begin
     id 7 
     name rfemur
     direction -0.34202 -0.939693 0   
     length 7.5119   
     axis 0 0 -20   XYZ
    dof rx ry rz
    limits (-160.0 20.0)
           (-70.0 70.0)
           (-70.0 60.0)
  end
  begin
     id 8 
     name rtibia
     direction -0.34202 -0.939693 0   
     length 7.50155   
     axis 0 0 -20   XYZ
    dof rx
    limits (-10.0 170.0)
 end
 begin
     id 9 
     name rfoot
     direction -0.118427 -0.325376 0.938139   
     length 2.32487  
     axis -90 -7.62852e-016 -20   XYZ
    dof rx rz
    limits (-45.0 90.0)
           (-20.0 70.0)
  end
  begin
     id 10 
     name rtoes
     direction -1.53525e-011 -4.21868e-011 1   
     length 1.15233   
     axis -90 -7.62852e-016 -20   XYZ
    dof rx
    limits (-90.0 20.0)
  end
  begin
     id 11 
     name lowerback
     direction 0.0287568 0.999577 -0.00434502   
     length 2.15243   
     axis 0 0 0   XYZ
    dof rx ry rz
    limits (-20.0 45.0)
           (-30.0 30.0)
           (-30.0 30.0)
  end
  begin
     id 12 
     name upperback
     direction 0.0294009 0.99956 0.00404628   
     length 2.15427   
     axis 0 0 0   XYZ
    dof rx ry rz
    limits (-20.0 45.0)
           (-30.0 30.0)
           (-30.0 30.0)
  end
  begin
     id 13 
     name thorax
     direction 0.0151014 0.999868 0.0059419   
     length 2.14898   
     axis 0 0 0   XYZ
    dof rx ry rz
    limits (-20.0 45.0)
           (-30.0 30.0)
           (-30.0 30.0)
  end
  begin
     id 14 
     name lowerneck
     direction -0.0249197 0.989906 0.139515   
     length 1.6861   
     axis 0 0 0   XYZ
    dof rx ry rz
    limits (-20.0 45.0)
           (-30.0 30.0)
           (-30.0 30.0)
  end
  begin
     id 15 
     name upperneck
     direction 0.0438463 0.988795 -0.142693   
     length 1.71276   
     axis 0 0 0   XYZ
    dof rx ry rz
    limits (-20.0 45.0)
           (-30.0 30.0)
           (-30.0 30.0)
  end
  begin
     id 16
     name head
     direction 0.0148499 0.997845 -0.0639186  
     length 1.7209  
     axis 0 0 0   XYZ
    dof rx ry rz
    limits (-20.0 45.0)
           (-30.0 30.0)
           (-30.0 30.0)
  end
  begin
     id 17 
     name lclavicle
     direction 0.940298 0.323464 -0.105876  
     length 3.9048  
     axis 0 0 0   XYZ
    dof ry rz
    limits (-20.0 10.0)
           (0.0 20.0)
  end
  begin
     id 18 
     name lhumerus
     direction 1 -4.48954e-011 -4.9675e-028   
     length 4.6851   
     axis 180 -30 -90   XYZ
    dof rx ry rz
    limits (-60.0 90.0)
           (-90.0 90.0)
           (-90.0 90.0)
  end
  begin
     id 19
     name lradius
     direction 1 -4.48992e-011 -1.03359e-026   
     length 3.39626   
     axis 180 -30 -90   XYZ
    dof rx
    limits (-10.0 170.0)
  end
  begin
     id 20
     name lwrist
     direction 1 -4.48906e-011 -1.67336e-026   
     length 1.69813   
     axis 9.90442e-015 90 90   XYZ
    dof ry
    limits (-180.0 0.0)
 end
  begin
     id 21 
     name lhand
     direction 1 -4.49006e-011 -3.34673e-026   
     length 0.486078   
     axis 2.1355e-014 90 90   XYZ
    dof rx rz
    limits (-90.0 90.0)
           (-45.0 45.0)
  end
  begin
     id 22 
     name lfingers
     direction 1 -4.48992e-011 -6.69345e-026   
     length 0.391889   
     axis 4.27099e-014 90 90   XYZ
    dof rx
    limits (0.0 90.0)
  end
  begin
     id 23
     name lthumb
     direction 0.707107 -6.34926e-011 0.707107   
     length 0.562676   
     axis -90 45 2.85299e-015   XYZ
    dof rx rz
    limits (-45.0 45.0)
           (-45.0 45.0)
  end
  begin
     id 24 
     name rclavicle
     direction -0.882459 0.414895 -0.221648   
     length 3.44646  
     axis 0 0 0   XYZ 
    dof ry rz
    limits (-10.0 20.0)
           (-20.0 0.0)
  end
  begin
     id 25 
     name rhumerus
     direction -1 -4.48962e-011 -2.37984e-027  
     length 5.55576   
     axis 180 30 90   XYZ
    dof rx ry rz
    limits (-90.0 60.0)
           (-90.0 90.0)
           (-90.0 90.0)
  end
  begin
     id 26 
     name rradius
     direction -1 -4.48982e-011 -6.86791e-027   
     length 3.32774   
     axis 180 30 90   XYZ
    dof rx
    limits (-10.0 170.0)
  end
  begin
     id 27 
     name rwrist
     direction -1 -4.48961e-011 -1.67336e-026   
     length 1.66387   
     axis 9.90442e-015 -90 -90   XYZ
    dof ry
    limits (-180.0 0.0)
  end
  begin
     id 28
     name rhand
     direction -1 -4.4897e-011 -3.34673e-026   
     length 0.507628   
     axis 2.1355e-014 -90 -90   XYZ
    dof rx rz
    limits (-90.0 90.0)
           (-45.0 45.0)
  end
  begin
     id 29
     name rfingers
     direction -1 -4.48854e-011 -6.69345e-026   
     length 0.409263   
     axis 4.27099e-014 -90 -90   XYZ
    dof rx
    limits (0.0 90.0)
  end
  begin
     id 30
     name rthumb
     direction -0.707107 -6.34913e-011 0.707107   
     length 0.587622   
     axis -90 -45 -2.85299e-015   XYZ
    dof rx rz
    limits (-45.0 45.0)
           (-45.0 45.0)
  end
:hierarchy
  begin
    root lhipjoint rhipjoint lowerback
    lhipjoint lfemur
    lfemur ltibia
    ltibia lfoot
    lfoot ltoes
    rhipjoint rfemur
    rfemur rtibia
    rtibia rfoot
    rfoot rtoes
    lowerback upperback
    upperback thorax
    thorax lowerneck lclavicle rclavicle
    lowerneck upperneck
    upperneck head
    lclavicle lhumerus
    lhumerus lradius
    lradius lwrist
    lwrist lhand lthumb
    lhand lfingers
    rclavicle rhumerus
    rhumerus rradius
    rradius rwrist
    rwrist rhand rthumb
    rhand rfingers
  end

#!OML:ASF E:\motion texture\Top Level 1\Subject 1\Session 1\male.ASF
:FULLY-SPECIFIED
:DEGREES
1
root 42.7357 17.7972 6.64339 108.139 -84.2629 -99.0168
lowerback -4.47447 -0.794823 3.99518
upperback -2.30729 -1.34288 3.585
thorax 0.131724 -0.73069 1.38467
lowerneck -17.6165 -4.42679 -5.51346
upperneck 10.5781 -5.42746 5.32677
head 6.38376 -2.41587 2.02406
rclavicle 3.23025e-016 -2.06736e-014
rhumerus -31.8954 -36.4016 -65.1406
rradius 20.5209
rwrist 2.89809
rhand -1.58909 -29.1795
rfingers 7.12502
rthumb 24.0675 -57.6902
lclavicle 3.23025e-016 -2.06736e-014
lhumerus -32.5292 22.258 78.2463
lradius 24.8965
lwrist -30.3296
lhand -12.6183 21.6462
lfingers 7.12502
lthumb 13.4611 51.1912
rfemur -11.9473 1.71684 26.4031
rtibia 16.7087
rfoot -8.70475 -15.4377
rtoes 12.2002
lfemur -7.48941 -2.21936 -12.2413
ltibia 9.5661
lfoot -9.33292 0.343758
ltoes 4.96785
2
root 42.7324 17.7936 6.64675 109.247 -84.2675 -99.9564
lowerback -4.93865 -0.746944 4.06544
upperback -2.27194 -1.31387 3.50497
thorax 0.423795 -0.71311 1.25579
lowerneck -18.5416 -4.16148 -7.08034
upperneck 11.7681 -5.09493 7.81747
head 7.01884 -2.0897 3.1189
rclavicle -4.37326e-015 1.98785e-015
rhumerus -30.8314 -36.1241 -66.0214
rradius 20.3598
rwrist 3.68322
rhand -2.0215 -28.4391
rfingers 7.12502
rthumb 23.6528 -57.004
lclavicle -4.37326e-015 1.98785e-015
lhumerus -32.2098 22.5784 78.2779
lradius 24.6894
lwrist -30.976
lhand -12.5311 21.755
lfingers 7.12502
lthumb 13.5451 51.2944
rfemur -11.8639 2.04269 26.3868
rtibia 16.2294
rfoot -8.5728 -15.6794
rtoes 12.3829
lfemur -7.6531 -2.26914 -12.2862
ltibia 9.56394
lfoot -9.3306 0.518516
ltoes 4.72044
3
root 42.729 17.7945 6.64851 111.258 -84.202 -101.916
lowerback -5.09244 -0.61544 4.21762
upperback -2.0842 -1.15695 3.33663
thorax 0.697427 -0.628032 1.00125
lowerneck -19.5124 -4.30069 -6.92024
upperneck 12.195 -5.30088 7.86451
head 7.33405 -2.152 3.07633
rclavicle -1.07344e-014 2.3059e-014
rhumerus -29.3923 -35.3345 -67.5543
rradius 20.5142
rwrist 3.67605
rhand -2.25057 -28.4382
rfingers 7.12502
rthumb 23.433 -57.0314
lclavicle -1.07344e-014 2.3059e-014
lhumerus -31.3682 22.5607 78.51
lradius 24.366
lwrist -31.3166
lhand -12.5325 21.9155
lfingers 7.12502
lthumb 13.5438 51.4551
rfemur -11.6691 2.49559 26.443
rtibia 15.7862
rfoot -8.46887 -15.9193
rtoes 12.6414
lfemur -7.63495 -2.28348 -12.2721
ltibia 9.51487
lfoot -9.38067 0.720398
ltoes 4.70104
4
root 42.725 17.796 6.65117 113.177 -84.0849 -103.776
lowerback -4.91566 -0.580803 4.36292
upperback -2.4355 -1.09325 3.28254
thorax 0.233807 -0.609603 0.87407
lowerneck -19.092 -4.25255 -6.96838
upperneck 12.4677 -5.27474 7.90784
head 7.35367 -2.14551 3.107
rclavicle -8.4235e-015 3.18055e-015
rhumerus -29.0211 -33.6972 -68.4792
rradius 20.737
rwrist 3.4743
rhand -2.32748 -28.0778
rfingers 7.12502
rthumb 23.3593 -56.6803
lclavicle -8.4235e-015 3.18055e-015
lhumerus -31.8117 22.7197 78.2668
lradius 24.2136
lwrist -31.7342
lhand -12.5566 21.591
lfingers 7.12502
lthumb 13.5206 51.132
rfemur -11.518 2.80212 26.5442
rtibia 15.4072
rfoot -8.2734 -16.0169
rtoes 12.7674
lfemur -7.61892 -2.32152 -12.2185
ltibia 9.45985
lfoot -9.42366 1.02169
ltoes 4.46941
5
root 42.7222 17.7992 6.65429 114.953 -83.9644 -105.491
lowerback -5.39595 -0.464815 4.54967
upperback -2.06705 -0.991113 3.16062
thorax 0.877403 -0.543593 0.640123
lowerneck -19.9664 -4.37065 -6.80811
upperneck 12.6247 -5.4338 7.89934
head 7.56008 -2.19319 3.05072
rclavicle 4.02539e-015 -1.19271e-015
rhumerus -27.3963 -33.0688 -69.9348
rradius 20.847
rwrist 3.52217
rhand -2.1462 -27.708
rfingers 7.12502
rthumb 23.5332 -56.2883
lclavicle 4.02539e-015 -1.19271e-015
lhumerus -30.7312 23.0646 78.532
lradius 23.8366
lwrist -32.1737
lhand -12.7065 21.3362
lfingers 7.12502
lthumb 13.3761 50.8869
rfemur -11.417 3.10867 26.6354
rtibia 15.1107
rfoot -8.17952 -16.1132
rtoes 12.8363
lfemur -7.61961 -2.41197 -12.174
ltibia 9.42556
lfoot -9.4481 1.31627
ltoes 4.536
6
root 42.7192 17.803 6.65572 116.791 -83.783 -107.268
lowerback -5.6053 -0.405113 4.68767
upperback -2.1793 -0.932364 3.15124
thorax 0.877205 -0.517873 0.555585
lowerneck -19.406 -4.32974 -6.89649
upperneck 12.4959 -5.38656 7.93377
head 7.42347 -2.18585 3.08703
rclavicle 6.4605e-015 2.82274e-014
rhumerus -26.7848 -31.641 -70.8438
rradius 21.0759
rwrist 3.22247
rhand -1.95633 -27.4162
rfingers 7.12502
rthumb 23.7153 -55.973
lclavicle 6.4605e-015 2.82274e-014
lhumerus -30.8015 23.2608 78.5207
lradius 23.6972
lwrist -32.4043
lhand -12.7843 21.7264
lfingers 7.12502
lthumb 13.3011 51.2819
rfemur -11.3157 3.30037 26.7696
rtibia 14.7937
rfoot -8.0687 -16.0552
rtoes 13.0051
lfemur -7.58973 -2.53959 -12.0463
ltibia 9.36874
lfoot -9.54395 1.64642
ltoes 5.04748
